<svg width="165" height="41" viewBox="0 0 165 41" fill="none" xmlns="http://www.w3.org/2000/svg">
<path d="M159.359 39.6993C163.368 38.2183 165.013 3.16709 163.368 2.17931C161.722 1.19153 149.874 1.22189 141.318 2.17931C132.761 3.13672 127.377 6.00521 118.265 7.60983C109.153 9.21445 54.4335 9.24884 46.1011 7.60983C37.7686 5.97082 33.4749 3.2908 25.0532 2.17931C16.6315 1.06782 3.50485 0.204206 1.49965 2.17931C-0.505561 4.15441 4.00679 39.4119 6.51104 39.6993C9.0153 39.9867 17.4993 37.9706 23.0472 36.2439C28.5951 34.5173 137.005 33.7237 143.322 35.2561C149.639 36.7886 155.349 41.1804 159.359 39.6993Z" fill="#DEDEDE" fill-opacity="0.5" stroke="#DEDEDE" stroke-width="2"/>
</svg>
