<svg width="58" height="95" viewBox="0 0 58 95" fill="none" xmlns="http://www.w3.org/2000/svg">
<path d="M46.8149 85.9926C39.3451 82.3381 1 89.9975 1 87.4945V70.4736C1 70.4736 18.3995 70.7132 27.3934 63.9656C36.3873 57.218 40.0985 49.4478 39.8431 38.9349C39.5876 28.422 34.1162 24.4174 32.8713 19.9116C31.6263 15.4059 31.8754 3.39112 32.8713 1.38889C33.8671 -0.61334 42.4873 5.50292 47.3131 10.9006C52.1388 16.2982 51.8264 28.1663 52.7908 39.9362C53.7552 51.706 53.0279 72.0308 54.2849 75.4797C55.5419 78.9287 56.2677 82.3022 56.7747 84.9914C57.2816 87.6806 56.7747 92 56.7747 92C56.7747 92 54.2847 89.6471 46.8149 85.9926Z" fill="#DEDEDE" fill-opacity="0.5" stroke="#DEDEDE" stroke-width="2"/>
</svg>
