<svg width="58" height="105" viewBox="0 0 58 105" fill="none" xmlns="http://www.w3.org/2000/svg">
<path d="M1 2.42124C1 2.42124 1.50295 -2.07059 12.0663 4.91671C22.6296 11.904 47.3777 25.3802 49.7922 29.3732C52.2068 33.3661 55.6592 51.5367 56.3314 64.81C57.0035 78.0832 58.1874 93.2591 53.8163 98.7494C49.4453 104.24 11.5838 105.737 8.54519 101.744C5.50659 97.7511 4.01808 76.0529 6.03012 73.2947C8.04218 70.5366 21.1487 72.9514 28.6657 64.81C36.1827 56.6685 40.939 47.0223 37.2169 37.3588C33.4948 27.6954 25.8565 19.9144 19.1085 18.3927C12.3604 16.8709 1 17.3945 1 17.3945V2.42124Z" fill="#DEDEDE" fill-opacity="0.5" stroke="#DEDEDE" stroke-width="2"/>
</svg>
