<svg width="58" height="95" viewBox="0 0 58 95" fill="none" xmlns="http://www.w3.org/2000/svg">
<path d="M11.1851 85.9926C18.6549 82.3381 57 89.9975 57 87.4945V70.4736C57 70.4736 39.6005 70.7132 30.6066 63.9656C21.6127 57.218 17.9015 49.4478 18.1569 38.9349C18.4124 28.422 23.8838 24.4174 25.1287 19.9116C26.3737 15.4059 26.1246 3.39112 25.1287 1.38889C24.1329 -0.61334 15.5127 5.50292 10.6869 10.9006C5.86119 16.2982 6.1736 28.1663 5.20922 39.9362C4.24483 51.706 4.97209 72.0308 3.71511 75.4797C2.45813 78.9287 1.73226 82.3022 1.22531 84.9914C0.718362 87.6806 1.22531 92 1.22531 92C1.22531 92 3.71525 89.6471 11.1851 85.9926Z" fill="#DEDEDE" fill-opacity="0.5" stroke="#DEDEDE" stroke-width="2"/>
</svg>
