<svg width="58" height="105" viewBox="0 0 58 105" fill="none" xmlns="http://www.w3.org/2000/svg">
<path d="M57 2.42124C57 2.42124 56.4971 -2.07059 45.9337 4.91671C35.3704 11.904 10.6223 25.3802 8.20777 29.3732C5.79325 33.3661 2.34077 51.5367 1.66861 64.81C0.996457 78.0832 -0.187395 93.2591 4.18367 98.7494C8.55474 104.24 46.4162 105.737 49.4548 101.744C52.4934 97.7511 53.9819 76.0529 51.9699 73.2947C49.9578 70.5366 36.8513 72.9514 29.3343 64.81C21.8173 56.6685 17.061 47.0223 20.7831 37.3588C24.5052 27.6954 32.1435 19.9144 38.8915 18.3927C45.6396 16.8709 57 17.3945 57 17.3945V2.42124Z" fill="#DEDEDE" fill-opacity="0.5" stroke="#DEDEDE" stroke-width="2"/>
</svg>
